<svg preserveAspectRatio="none" width="100%" height="100%" overflow="visible" style="display: block;" viewBox="0 0 48 48" fill="none" xmlns="http://www.w3.org/2000/svg">
<g id="Group 6738">
<g id="Vector">
<path d="M48 24C48 10.7453 37.2547 0 24 0C10.7453 0 0 10.7453 0 24C0 35.255 7.74912 44.6995 18.2026 47.2934V31.3344H13.2538V24H18.2026V20.8397C18.2026 12.671 21.8995 8.8848 29.9194 8.8848C31.44 8.8848 34.0637 9.18336 35.137 9.48096V16.129C34.5706 16.0694 33.5866 16.0397 32.3645 16.0397C28.4294 16.0397 26.9088 17.5306 26.9088 21.4061V24H34.7482L33.4013 31.3344H26.9088V47.8243C38.7926 46.3891 48 36.2707 48 24Z" fill="#0866FF"/>
</g>
<path id="Vector_2" d="M33.4013 31.3344L34.7482 24H26.9088V21.406C26.9088 17.5305 28.4295 16.0396 32.3645 16.0396C33.5866 16.0396 34.5706 16.0694 35.137 16.1289V9.48093C34.0637 9.18333 31.44 8.88477 29.9194 8.88477C21.8995 8.88477 18.2026 12.671 18.2026 20.8396V24H13.2538V31.3344H18.2026V47.2934C20.0592 47.7542 22.0003 48 23.9991 48C24.9831 48 25.9536 47.9395 26.9069 47.8243V31.3344H33.4013Z" fill="var(--fill-0, white)"/>
<g id="Vector_3">
<path d="M48 24C48 10.7453 37.2547 0 24 0C10.7453 0 0 10.7453 0 24C0 35.255 7.74912 44.6995 18.2026 47.2934V31.3344H13.2538V24H18.2026V20.8397C18.2026 12.671 21.8995 8.8848 29.9194 8.8848C31.44 8.8848 34.0637 9.18336 35.137 9.48096V16.129C34.5706 16.0694 33.5866 16.0397 32.3645 16.0397C28.4294 16.0397 26.9088 17.5306 26.9088 21.4061V24H34.7482L33.4013 31.3344H26.9088V47.8243C38.7926 46.3891 48 36.2707 48 24Z" fill="#0866FF"/>
</g>
<path id="Vector_4" d="M33.4013 31.3344L34.7482 24H26.9088V21.406C26.9088 17.5305 28.4295 16.0396 32.3645 16.0396C33.5866 16.0396 34.5706 16.0694 35.137 16.1289V9.48093C34.0637 9.18333 31.44 8.88477 29.9194 8.88477C21.8995 8.88477 18.2026 12.671 18.2026 20.8396V24H13.2538V31.3344H18.2026V47.2934C20.0592 47.7542 22.0003 48 23.9991 48C24.9831 48 25.9536 47.9395 26.9069 47.8243V31.3344H33.4013Z" fill="var(--fill-0, white)"/>
</g>
</svg>
