<svg preserveAspectRatio="none" width="100%" height="100%" overflow="visible" style="display: block;" viewBox="0 0 47.772 48.0001" fill="none" xmlns="http://www.w3.org/2000/svg">
<g id="Group 6736">
<g id="Vector">
<path d="M0 48.0001L3.37402 35.6741C1.29202 32.0661 0.197951 27.9761 0.199951 23.7821C0.205951 10.6701 10.876 7.24792e-05 23.986 7.24792e-05C30.348 0.00207248 36.32 2.48007 40.812 6.97607C45.302 11.4721 47.774 17.4481 47.772 23.8041C47.766 36.9181 37.096 47.5881 23.986 47.5881C20.006 47.5861 16.084 46.5881 12.61 44.6921L0 48.0001Z" fill="white"/>
</g>
<path id="Vector_2" d="M13.194 40.3862C16.546 42.3762 19.746 43.5682 23.978 43.5702C34.874 43.5702 43.75 34.7022 43.756 23.8002C43.76 12.8762 34.926 4.02019 23.994 4.01619C13.09 4.01619 4.21994 12.8842 4.21594 23.7842C4.21394 28.2342 5.51801 31.5662 7.70801 35.0522L5.70996 42.3482L13.194 40.3862Z" fill="var(--fill-0, #25D366)"/>
<g id="Vector_3">
<path d="M35.968 29.4581C35.82 29.2101 35.424 29.0621 34.828 28.7641C34.234 28.4661 31.312 27.0281 30.766 26.8301C30.222 26.6321 29.826 26.5321 29.428 27.1281C29.032 27.7221 27.892 29.0621 27.546 29.4581C27.2 29.8541 26.8519 29.9041 26.2579 29.6061C25.6639 29.3081 23.748 28.6821 21.478 26.6561C19.712 25.0801 18.518 23.1341 18.172 22.5381C17.826 21.9441 18.136 21.6221 18.432 21.3261C18.7 21.0601 19.026 20.6321 19.324 20.2841C19.626 19.9401 19.7239 19.6921 19.924 19.2941C20.122 18.8981 20.024 18.5501 19.874 18.2521C19.724 17.9561 18.536 15.0301 18.042 13.8401C17.558 12.6821 17.068 12.8381 16.704 12.8201L15.564 12.8001C15.168 12.8001 14.524 12.9481 13.98 13.5441C13.436 14.1401 11.9 15.5761 11.9 18.5021C11.9 21.4281 14.0299 24.2541 14.3259 24.6501C14.6239 25.0461 18.516 31.0501 24.478 33.6241C25.896 34.2361 27.004 34.6021 27.866 34.8761C29.29 35.3281 30.586 35.2641 31.61 35.1121C32.752 34.9421 35.1259 33.6741 35.6219 32.2861C36.1179 30.8961 36.118 29.7061 35.968 29.4581Z" fill="white"/>
</g>
</g>
</svg>
