<svg preserveAspectRatio="none" width="100%" height="100%" overflow="visible" style="display: block;" viewBox="0 0 42.3052 48" fill="none" xmlns="http://www.w3.org/2000/svg">
<g id="Group 6739">
<g id="Vector">
<path d="M31.353 17.327C34.4397 19.5414 38.2211 20.8443 42.3052 20.8443V12.9573C41.5323 12.9575 40.7613 12.8766 40.0051 12.7158V18.924C35.9214 18.924 32.1406 17.6211 29.053 15.4069V31.5018C29.053 39.5534 22.5492 46.0799 14.5268 46.0799C11.5334 46.0799 8.75124 45.1717 6.44006 43.6142C9.07789 46.3209 12.7565 48 16.8263 48C24.8492 48 31.3534 41.4735 31.3534 33.4216L31.353 17.327Z" fill="#FF004F"/>
</g>
<g id="Vector_2">
<path d="M34.1904 9.37C32.6129 7.64046 31.5771 5.40536 31.353 2.93436V1.91992H29.1735C29.7221 5.06056 31.5934 7.74375 34.1904 9.37Z" fill="#FF004F"/>
</g>
<g id="Vector_3">
<path d="M11.5142 37.4358C10.6329 36.2761 10.1566 34.8574 10.1588 33.3987C10.1588 29.7162 13.1335 26.7304 16.8036 26.7304C17.4876 26.7303 18.1675 26.8354 18.8193 27.0429V18.9797C18.0576 18.875 17.2888 18.8305 16.5203 18.8468V25.1228C15.868 24.9152 15.1878 24.8098 14.5037 24.8105C10.8335 24.8105 7.85889 27.7959 7.85889 31.4789C7.85889 34.083 9.34579 36.3375 11.5142 37.4358Z" fill="#FF004F"/>
</g>
<g id="Vector_4">
<path d="M29.053 15.4068C32.1406 17.621 35.9214 18.9239 40.0051 18.9239V12.7157C37.7256 12.2284 35.7076 11.0328 34.1904 9.37C31.5934 7.74375 29.7221 5.06056 29.1735 1.91992H23.4482V33.4212C23.4352 37.0936 20.4655 40.0672 16.8032 40.0672C14.6451 40.0672 12.7285 39.0348 11.5142 37.4356C9.34579 36.3373 7.85889 34.0828 7.85889 31.4787C7.85889 27.7957 10.8335 24.8103 14.5037 24.8103C15.2068 24.8103 15.8846 24.9202 16.5203 25.1226V18.8466C8.63885 19.01 2.2998 25.473 2.2998 33.4214C2.2998 37.3892 3.8782 40.9859 6.44006 43.6141C8.75124 45.1717 11.5334 46.0798 14.5268 46.0798C22.5492 46.0798 29.053 39.5533 29.053 31.5018V15.4068Z" fill="black"/>
</g>
<g id="Vector_5">
<path d="M40.0052 12.7159L40.0051 11.0371C37.9496 11.0402 35.9344 10.4626 34.1904 9.37012C35.7343 11.0664 37.7672 12.236 40.0052 12.7159Z" fill="#00F2EA"/>
</g>
<g id="Vector_6">
<path d="M29.1734 1.91995C29.1211 1.61981 29.0808 1.31771 29.0529 1.01443V0H21.1479V31.5016C21.1353 35.1735 18.1658 38.1471 14.5032 38.1471C13.428 38.1471 12.4132 37.8908 11.5142 37.4356C12.7284 39.0349 14.6451 40.0673 16.8032 40.0673C20.4654 40.0673 23.4352 37.0937 23.4481 33.4213V1.91995H29.1734Z" fill="#00F2EA"/>
</g>
<g id="Vector_7">
<path d="M16.5203 18.8467L16.5203 17.0598C15.8597 16.9692 15.1938 16.9237 14.527 16.9241C6.50381 16.9239 0 23.4508 0 31.5016C0 36.5491 2.55584 40.9975 6.44006 43.6142C3.8782 40.986 2.2998 37.3892 2.2998 33.4214C2.2998 25.4731 8.63885 19.0101 16.5203 18.8467Z" fill="#00F2EA"/>
</g>
<g id="Vector_8">
<path d="M31.353 17.327C34.4397 19.5414 38.2211 20.8443 42.3052 20.8443V12.9573C41.5323 12.9575 40.7613 12.8766 40.0051 12.7158V18.924C35.9214 18.924 32.1406 17.6211 29.053 15.4069V31.5018C29.053 39.5534 22.5492 46.0799 14.5268 46.0799C11.5334 46.0799 8.75124 45.1717 6.44006 43.6142C9.07789 46.3209 12.7565 48 16.8263 48C24.8492 48 31.3534 41.4735 31.3534 33.4216L31.353 17.327Z" fill="#FF004F"/>
</g>
<g id="Vector_9">
<path d="M34.1904 9.37C32.6129 7.64046 31.5771 5.40536 31.353 2.93436V1.91992H29.1735C29.7221 5.06056 31.5934 7.74375 34.1904 9.37Z" fill="#FF004F"/>
</g>
<g id="Vector_10">
<path d="M11.5142 37.4358C10.6329 36.2761 10.1566 34.8574 10.1588 33.3987C10.1588 29.7162 13.1335 26.7304 16.8036 26.7304C17.4876 26.7303 18.1675 26.8354 18.8193 27.0429V18.9797C18.0576 18.875 17.2888 18.8305 16.5203 18.8468V25.1228C15.868 24.9152 15.1878 24.8098 14.5037 24.8105C10.8335 24.8105 7.85889 27.7959 7.85889 31.4789C7.85889 34.083 9.34579 36.3375 11.5142 37.4358Z" fill="#FF004F"/>
</g>
<g id="Vector_11">
<path d="M29.053 15.4068C32.1406 17.621 35.9214 18.9239 40.0051 18.9239V12.7157C37.7256 12.2284 35.7076 11.0328 34.1904 9.37C31.5934 7.74375 29.7221 5.06056 29.1735 1.91992H23.4482V33.4212C23.4352 37.0936 20.4655 40.0672 16.8032 40.0672C14.6451 40.0672 12.7285 39.0348 11.5142 37.4356C9.34579 36.3373 7.85889 34.0828 7.85889 31.4787C7.85889 27.7957 10.8335 24.8103 14.5037 24.8103C15.2068 24.8103 15.8846 24.9202 16.5203 25.1226V18.8466C8.63885 19.01 2.2998 25.473 2.2998 33.4214C2.2998 37.3892 3.8782 40.9859 6.44006 43.6141C8.75124 45.1717 11.5334 46.0798 14.5268 46.0798C22.5492 46.0798 29.053 39.5533 29.053 31.5018V15.4068Z" fill="black"/>
</g>
<g id="Vector_12">
<path d="M40.0052 12.7159L40.0051 11.0371C37.9496 11.0402 35.9344 10.4626 34.1904 9.37012C35.7343 11.0664 37.7672 12.236 40.0052 12.7159Z" fill="#00F2EA"/>
</g>
<g id="Vector_13">
<path d="M29.1734 1.91995C29.1211 1.61981 29.0808 1.31771 29.0529 1.01443V0H21.1479V31.5016C21.1353 35.1735 18.1658 38.1471 14.5032 38.1471C13.428 38.1471 12.4132 37.8908 11.5142 37.4356C12.7284 39.0349 14.6451 40.0673 16.8032 40.0673C20.4654 40.0673 23.4352 37.0937 23.4481 33.4213V1.91995H29.1734Z" fill="#00F2EA"/>
</g>
<g id="Vector_14">
<path d="M16.5203 18.8467L16.5203 17.0598C15.8597 16.9692 15.1938 16.9237 14.527 16.9241C6.50381 16.9239 0 23.4508 0 31.5016C0 36.5491 2.55584 40.9975 6.44006 43.6142C3.8782 40.986 2.2998 37.3892 2.2998 33.4214C2.2998 25.4731 8.63885 19.0101 16.5203 18.8467Z" fill="#00F2EA"/>
</g>
</g>
</svg>
