<svg preserveAspectRatio="none" width="100%" height="100%" overflow="visible" style="display: block;" viewBox="0 0 47.9719 47.9906" fill="none" xmlns="http://www.w3.org/2000/svg">
<g id="Group 6737">
<path id="Vector" d="M23.9998 4.82202C30.4096 4.82202 31.1608 4.84966 33.6717 4.96167V4.96265C35.9592 5.0633 37.1712 5.4447 37.9656 5.75366H37.9666C39.0176 6.15994 39.765 6.64677 40.5496 7.4314C41.3433 8.22511 41.8209 8.96306 42.2274 10.0144V10.0154C42.5362 10.8096 42.9187 12.0311 43.0193 14.3093V14.3103C43.1313 16.8303 43.159 17.5815 43.159 23.9812C43.159 28.7889 43.1439 30.4131 43.0887 31.9841L43.0193 33.6531C42.9187 35.9406 42.5363 37.1526 42.2274 37.947V37.948C41.821 38.9991 41.3344 39.7463 40.5496 40.531C39.7558 41.3248 39.0181 41.8023 37.9666 42.2087H37.9656C37.1714 42.5176 35.9501 42.9001 33.6717 43.0007C31.1513 43.1127 30.4001 43.1404 23.9998 43.1404C17.5906 43.1404 16.8395 43.1127 14.3289 43.0007H14.3279C12.0406 42.9001 10.8284 42.5177 10.034 42.2087H10.033C8.98208 41.8025 8.23467 41.3157 7.45001 40.531C6.65632 39.7373 6.17872 38.9994 5.77228 37.948V37.947L5.65411 37.6277C5.37273 36.8307 5.06933 35.6466 4.98126 33.6531H4.98029C4.86827 31.1327 4.84064 30.3815 4.84064 23.9812C4.84064 17.572 4.86829 16.8209 4.98029 14.3103L4.98126 14.3093C5.08193 12.022 5.46333 10.8098 5.77228 10.0154V10.0144C6.17857 8.96341 6.66533 8.21608 7.45001 7.4314C8.24376 6.63765 8.9816 6.16012 10.033 5.75366H10.034C10.8282 5.44481 12.0498 5.06333 14.3279 4.96265L14.3289 4.96167C16.8395 4.84967 17.5906 4.82202 23.9998 4.82202Z" stroke="url(#paint0_linear_204_114)"/>
<path id="Vector_2" d="M24 0.5C30.5129 0.5 31.3194 0.528117 33.876 0.649414H33.8779C36.3783 0.759724 38.0681 1.16222 39.541 1.73145V1.73242C41.055 2.3182 42.3361 3.10565 43.6152 4.38477L43.6162 4.38574C44.9025 5.66306 45.6803 6.94127 46.2471 8.4707L46.25 8.47852C46.8187 9.94107 47.2217 11.6397 47.332 14.1406C47.4441 16.6891 47.4717 17.4967 47.4717 24.0098C47.4717 30.5223 47.444 31.3296 47.332 33.8779C47.2217 36.3784 46.8183 38.068 46.249 39.541C45.6633 41.055 44.8757 42.3361 43.5967 43.6152C42.3176 44.8943 41.0365 45.6818 39.5225 46.2676L39.5215 46.2686C38.0589 46.8373 36.3603 47.2402 33.8594 47.3506C31.3109 47.4626 30.5033 47.4902 23.9902 47.4902C17.4777 47.4902 16.6704 47.4626 14.1221 47.3506C11.6213 47.2403 9.93113 46.8369 8.45801 46.2676H8.45898C6.94497 45.6818 5.66388 44.8943 4.38477 43.6152L4.38379 43.6143L4.14844 43.374C3.00088 42.1755 2.28039 40.9617 1.72168 39.5312H1.72266C1.18936 38.1599 0.80133 36.5812 0.664062 34.3281L0.640625 33.8682C0.52862 31.32 0.5 30.5126 0.5 24C0.5 17.4872 0.528604 16.6799 0.640625 14.1221C0.750888 11.6228 1.15283 9.93346 1.72168 8.46094C2.31774 6.9437 3.09731 5.66323 4.38379 4.38574L4.38574 4.38379C5.66275 3.09779 6.94225 2.31761 8.46777 1.72168L8.46875 1.72266C9.93145 1.15383 11.6305 0.750976 14.1318 0.640625L14.1309 0.639648C16.6794 0.527626 17.487 0.5 24 0.5Z" stroke="url(#paint1_linear_204_114)"/>
<path id="Vector_3" d="M24 12.1719C30.5301 12.1719 35.8281 17.4699 35.8281 24C35.8281 30.5301 30.5301 35.8281 24 35.8281C17.4699 35.8281 12.1719 30.5301 12.1719 24C12.1719 17.4699 17.4699 12.1719 24 12.1719Z" stroke="var(--stroke-0, #CEB523)"/>
<path id="Vector_4" d="M24.0002 16.5032C28.1396 16.5033 31.4973 19.8608 31.4973 24.0002C31.4971 28.1396 28.1395 31.4972 24.0002 31.4973C19.8608 31.4973 16.5032 28.1396 16.5031 24.0002C16.5031 19.8608 19.8607 16.5032 24.0002 16.5032Z" stroke="var(--stroke-0, #CEB523)"/>
<path id="Vector_5" d="M36.8154 8.8064C38.1236 8.8064 39.1933 9.87619 39.1934 11.1843C39.1934 12.5009 38.1247 13.5623 36.8154 13.5623C35.499 13.5622 34.4375 12.4936 34.4375 11.1843C34.4376 9.86793 35.5063 8.8065 36.8154 8.8064Z" stroke="var(--stroke-0, #CEB523)"/>
</g>
<defs>
<linearGradient id="paint0_linear_204_114" x1="24" y1="4.32202" x2="24" y2="43.6408" gradientUnits="userSpaceOnUse">
<stop stop-color="#FF00B7"/>
<stop offset="1" stop-color="#FFE02D"/>
</linearGradient>
<linearGradient id="paint1_linear_204_114" x1="23.9859" y1="0" x2="23.9859" y2="47.9906" gradientUnits="userSpaceOnUse">
<stop stop-color="#FF0099"/>
<stop offset="1" stop-color="#C1A400"/>
</linearGradient>
</defs>
</svg>
