<svg preserveAspectRatio="none" width="100%" height="100%" overflow="visible" style="display: block;" viewBox="0 0 31.2307 28.2318" fill="none" xmlns="http://www.w3.org/2000/svg">
<path id="body" fill-rule="evenodd" clip-rule="evenodd" d="M9.02665 2.82342C7.77497 4.39022 7.34614 6.25064 7.34614 7.35628C7.34614 8.38144 7.43297 9.80558 7.50626 10.8268C7.5306 11.1659 7.46106 11.5613 7.16487 11.8751C6.86507 12.1927 6.4572 12.2959 6.09286 12.2959C5.56675 12.2959 5.1666 12.1034 4.91063 11.9802L4.88091 11.966C4.59532 11.829 4.44517 11.7654 4.22442 11.7654C4.02361 11.7654 3.77843 11.8516 3.58401 12.0089C3.38694 12.1684 3.32981 12.3244 3.32981 12.4137C3.32981 12.5956 3.39689 12.7255 3.64339 12.8849C3.93452 13.0732 4.34935 13.2148 4.89315 13.3932L4.9405 13.4087C5.3921 13.5566 5.95145 13.7399 6.39286 14.015C6.88835 14.3239 7.34614 14.8203 7.34614 15.585C7.34614 15.7854 7.29071 15.9784 7.23869 16.1245C7.18222 16.2831 7.10592 16.4506 7.02042 16.6176C6.84906 16.9523 6.61733 17.3303 6.36263 17.7063C5.85727 18.4525 5.21489 19.2594 4.68097 19.773C4.14121 20.2923 3.32947 20.8759 2.50845 21.3313C2.09498 21.5606 1.66329 21.7662 1.24703 21.9165C0.874425 22.0509 0.472842 22.1562 0.0876021 22.1727C0.0779991 22.1767 0.0673917 22.1816 0.0562798 22.1872C0.0385211 22.1961 0.0219073 22.2058 0.00741705 22.2155L0 22.2206C0.00145323 22.231 0.00311713 22.2387 0.00450052 22.2441C0.00758304 22.2562 0.0112414 22.2648 0.0161666 22.2737C0.03127 22.301 0.0550887 22.3315 0.151448 22.4347L0.17673 22.4619C0.350314 22.6486 0.778104 22.891 1.45621 23.1077C2.10203 23.3141 2.86572 23.4632 3.58723 23.5316C3.94823 23.5659 4.15631 23.7915 4.24437 23.913C4.33502 24.0381 4.38687 24.1702 4.41716 24.2579C4.47577 24.4276 4.52004 24.6366 4.55495 24.8014L4.56026 24.8265C4.60793 25.0512 4.64963 25.2433 4.70401 25.4039C4.72324 25.4606 4.74098 25.5038 4.75625 25.5356C4.79067 25.5395 4.84346 25.5433 4.91993 25.543C5.25169 25.5416 5.58385 25.4922 5.91256 25.4526C6.43846 25.3892 7.08928 25.3108 7.77834 25.3108C9.37644 25.3108 10.431 26.0313 11.4496 26.7274L11.5068 26.7664C11.8838 27.0238 12.2616 27.2815 12.6864 27.5326C13.8836 28.2401 14.7946 28.235 15.4601 28.2312C15.5069 28.231 15.5526 28.2307 15.597 28.2307C15.641 28.2307 15.6863 28.231 15.733 28.2312C16.4059 28.2348 17.3473 28.2399 18.5443 27.5326C18.9691 27.2815 19.3469 27.0238 19.7239 26.7664L19.781 26.7274C20.7997 26.0313 21.8543 25.3108 23.4524 25.3108C24.1414 25.3108 24.7922 25.3892 25.3181 25.4526L25.334 25.4545C25.7593 25.5057 26.0705 25.542 26.3108 25.543C26.3872 25.5433 26.44 25.5395 26.4745 25.5356C26.4897 25.5038 26.5075 25.4606 26.5267 25.4039C26.5811 25.2433 26.6228 25.0512 26.6704 24.8265L26.6758 24.8014C26.7107 24.6366 26.7549 24.4276 26.8135 24.2579C26.8438 24.1702 26.8957 24.0381 26.9863 23.913C27.0744 23.7914 27.2825 23.5659 27.6435 23.5316C28.365 23.4632 29.1287 23.3141 29.7745 23.1077C30.4526 22.891 30.8804 22.6486 31.054 22.4619L31.0792 22.4348C31.1756 22.3315 31.1994 22.301 31.2145 22.2737C31.2195 22.2648 31.2231 22.2562 31.2262 22.2441C31.2276 22.2387 31.2292 22.231 31.2307 22.2206L31.2233 22.2155C31.2088 22.2058 31.1922 22.1961 31.1744 22.1872C31.1633 22.1816 31.1527 22.1767 31.1431 22.1727C30.7579 22.1562 30.3563 22.0509 29.9837 21.9165C29.5674 21.7662 29.1357 21.5606 28.7222 21.3313C27.9012 20.8759 27.0895 20.2923 26.5497 19.773C26.0158 19.2594 25.3734 18.4525 24.8681 17.7063C24.6134 17.3303 24.3816 16.9523 24.2103 16.6176C24.1248 16.4506 24.0485 16.2831 23.992 16.1245C23.94 15.9784 23.8846 15.7854 23.8846 15.585C23.8846 14.8203 24.3424 14.3239 24.8378 14.015C25.2792 13.7399 25.8386 13.5566 26.2902 13.4087L26.3375 13.3932C26.8814 13.2148 27.2962 13.0732 27.5873 12.8849C27.8338 12.7255 27.9009 12.5956 27.9009 12.4137C27.9009 12.3244 27.8438 12.1684 27.6467 12.0089C27.4523 11.8516 27.2071 11.7654 27.0063 11.7654C26.7855 11.7654 26.6354 11.829 26.3498 11.966L26.3201 11.9802C26.0641 12.1034 25.6639 12.2959 25.1378 12.2959C24.7735 12.2959 24.3656 12.1927 24.0658 11.8751C23.7696 11.5613 23.7001 11.1659 23.7244 10.8268C23.7977 9.80558 23.8846 8.38144 23.8846 7.35628C23.8846 6.24777 23.4633 4.38715 22.2209 2.82148C21.0072 1.29202 18.9784 0 15.6337 0C12.2887 0 10.2497 1.2924 9.02665 2.82342Z" fill="var(--fill-0, white)"/>
</svg>
