<svg preserveAspectRatio="none" width="100%" height="100%" overflow="visible" style="display: block;" viewBox="0 0 34.375 31.25" fill="none" xmlns="http://www.w3.org/2000/svg">
<path id="stroke" fill-rule="evenodd" clip-rule="evenodd" d="M25.0399 3.41486C23.5313 1.51374 21.0426 0 17.2059 0C13.9205 0.0323557 7.34966 1.85071 7.34966 8.86526C7.34966 9.88972 7.43075 11.2617 7.50161 12.2721C7.41809 12.2478 7.31543 12.2024 7.15273 12.1244L7.13013 12.1135C6.84243 11.9754 6.40496 11.7654 5.79657 11.7654C5.18196 11.7654 4.58768 12.0061 4.14649 12.3631C3.70795 12.7179 3.33333 13.2633 3.33333 13.9227C3.33333 14.7475 3.79751 15.2951 4.34028 15.6461C4.82238 15.958 5.43029 16.1571 5.91151 16.3148L5.95909 16.3304C6.4742 16.4993 6.85171 16.6281 7.11201 16.7904C7.31462 16.9167 7.34538 16.9966 7.34918 17.0725C7.34654 17.0833 7.34035 17.1066 7.32687 17.1444C7.29908 17.2225 7.25287 17.328 7.18534 17.4599C7.05062 17.723 6.85418 18.0465 6.62048 18.3916C6.14904 19.0877 5.5737 19.8016 5.14394 20.215C4.72003 20.6228 4.02441 21.1296 3.29713 21.533C2.93646 21.733 2.58375 21.8987 2.26824 22.0126C1.94254 22.1301 1.70385 22.1749 1.55637 22.1749C1.43963 22.1749 1.33858 22.1989 1.29448 22.21C1.2325 22.2255 1.16835 22.2459 1.10488 22.2698C0.979021 22.3171 0.828997 22.388 0.680413 22.488C0.396511 22.6791 0 23.0643 0 23.6721C0 23.9894 0.0744731 24.258 0.203201 24.4909C0.315886 24.6949 0.460738 24.8496 0.544112 24.9387L0.556478 24.9519L0.579551 24.9767C1.03805 25.47 1.797 25.8132 2.53378 26.0487C3.16686 26.251 3.87468 26.4018 4.5644 26.4924C4.57415 26.5368 4.58433 26.5847 4.59547 26.6372L4.59906 26.6541C4.64248 26.859 4.70001 27.1302 4.7847 27.3803C4.86462 27.6163 5.00935 27.9652 5.30568 28.2137C5.68308 28.5302 6.17669 28.5622 6.49876 28.5609C6.84448 28.5595 7.24814 28.5108 7.63116 28.4647L7.66377 28.4607C8.20272 28.3958 8.76652 28.3287 9.35049 28.3287C10.4162 28.3287 11.0992 28.7739 12.171 29.5059L12.1782 29.5108C12.5494 29.7643 12.9651 30.0482 13.4375 30.3273C15.0191 31.2619 16.304 31.2538 17.0324 31.2493C17.0804 31.249 17.126 31.2487 17.1691 31.2487C17.2122 31.2487 17.2581 31.249 17.3065 31.2493C18.0359 31.254 19.3551 31.2624 20.9375 30.3273C21.4099 30.0482 21.8256 29.7643 22.1968 29.5108L22.204 29.5059C23.2758 28.7739 23.9588 28.3287 25.0245 28.3287C25.6085 28.3287 26.1723 28.3958 26.7112 28.4607L26.7438 28.4647C27.1269 28.5108 27.5305 28.5595 27.8762 28.5609C28.1983 28.5622 28.6919 28.5302 29.0693 28.2137C29.3656 27.9652 29.5104 27.6163 29.5903 27.3803C29.675 27.1302 29.7325 26.859 29.7759 26.6542L29.7795 26.6372C29.7907 26.5847 29.8009 26.5368 29.8106 26.4924C30.5003 26.4018 31.2081 26.251 31.8412 26.0487C32.578 25.8132 33.337 25.4699 33.7955 24.9766L33.8185 24.9519L33.8308 24.9387C33.9142 24.8497 34.0591 24.6949 34.1718 24.4909C34.3005 24.258 34.375 23.9894 34.375 23.6721C34.375 23.0643 33.9785 22.6791 33.6946 22.488C33.546 22.388 33.396 22.3171 33.2701 22.2698C33.2067 22.2459 33.1425 22.2255 33.0805 22.21C33.0364 22.1989 32.9354 22.1749 32.8186 22.1749C32.6711 22.1749 32.4325 22.1301 32.1068 22.0126C31.7912 21.8987 31.4385 21.733 31.0779 21.533C30.3506 21.1296 29.655 20.6228 29.2311 20.215C28.8013 19.8016 28.226 19.0877 27.7545 18.3916C27.5208 18.0465 27.3244 17.723 27.1897 17.4599C27.1221 17.328 27.0759 17.2225 27.0481 17.1444C27.0347 17.1066 27.0285 17.0833 27.0258 17.0725C27.0296 16.9966 27.0604 16.9167 27.263 16.7904C27.5233 16.6281 27.9008 16.4993 28.4159 16.3304L28.4635 16.3148C28.9447 16.1571 29.5526 15.958 30.0347 15.6461C30.5775 15.2951 31.0417 14.7475 31.0417 13.9227C31.0417 13.2633 30.667 12.7179 30.2285 12.3631C29.7873 12.0061 29.193 11.7654 28.5784 11.7654C27.97 11.7654 27.5326 11.9754 27.2449 12.1135L27.2223 12.1244C27.0596 12.2024 26.9569 12.2478 26.8734 12.2721C26.9443 11.2617 27.0253 9.88972 27.0253 8.86526C27.0253 7.47452 26.5197 5.27975 25.0399 3.41486ZM10.5988 4.3324C9.34712 5.8992 8.91829 7.75963 8.91829 8.86526C8.91829 9.89042 9.00512 11.3146 9.07841 12.3357C9.10275 12.6749 9.03321 13.0702 8.73702 13.3841C8.43722 13.7017 8.02935 13.8048 7.66501 13.8048C7.1389 13.8048 6.73875 13.6124 6.48278 13.4892L6.45306 13.4749C6.16747 13.338 6.01732 13.2743 5.79657 13.2743C5.59576 13.2743 5.35058 13.3606 5.15616 13.5179C4.95909 13.6774 4.90196 13.8334 4.90196 13.9227C4.90196 14.1045 4.96904 14.2345 5.21554 14.3939C5.50667 14.5822 5.9215 14.7238 6.4653 14.9021L6.51265 14.9177C6.96425 15.0656 7.5236 15.2489 7.96501 15.524C8.4605 15.8329 8.91829 16.3293 8.91829 17.0939C8.91829 17.2944 8.86286 17.4874 8.81084 17.6335C8.75437 17.792 8.67807 17.9595 8.59257 18.1266C8.42121 18.4613 8.18949 18.8392 7.93478 19.2153C7.42942 19.9615 6.78704 20.7684 6.25312 21.282C5.71336 21.8012 4.90162 22.3849 4.08061 22.8402C3.66713 23.0696 3.23544 23.2752 2.81918 23.4254C2.44658 23.5599 2.04499 23.6652 1.65975 23.6817C1.65015 23.6857 1.63954 23.6905 1.62843 23.6961C1.61067 23.7051 1.59406 23.7147 1.57957 23.7245L1.57215 23.7296C1.5736 23.74 1.57527 23.7477 1.57665 23.7531C1.57973 23.7652 1.58339 23.7738 1.58832 23.7827C1.60342 23.81 1.62724 23.8405 1.7236 23.9437L1.74888 23.9708C1.92246 24.1576 2.35025 24.4 3.02836 24.6167C3.67418 24.8231 4.43787 24.9722 5.15938 25.0406C5.52039 25.0749 5.72846 25.3004 5.81652 25.422C5.90717 25.5471 5.95902 25.6792 5.98931 25.7669C6.04792 25.9366 6.09219 26.1456 6.1271 26.3104L6.13241 26.3355C6.18008 26.5602 6.22178 26.7523 6.27617 26.9129C6.29539 26.9696 6.31313 27.0128 6.3284 27.0446C6.36282 27.0485 6.41561 27.0523 6.49208 27.052C6.82384 27.0506 7.156 27.0012 7.48471 26.9615C8.01061 26.8982 8.66143 26.8198 9.35049 26.8198C10.9486 26.8198 12.0031 27.5403 13.0218 28.2363L13.079 28.2754C13.456 28.5328 13.8337 28.7905 14.2586 29.0416C15.4558 29.749 16.3667 29.7439 17.0323 29.7402C17.0791 29.74 17.1247 29.7397 17.1691 29.7397C17.2132 29.7397 17.2585 29.7399 17.3051 29.7402C17.978 29.7438 18.9195 29.7489 20.1164 29.0416C20.5413 28.7905 20.919 28.5328 21.296 28.2754L21.3532 28.2363C22.3719 27.5403 23.4264 26.8198 25.0245 26.8198C25.7136 26.8198 26.3644 26.8982 26.8903 26.9615L26.9062 26.9635C27.3314 27.0147 27.6426 27.051 27.8829 27.052C27.9594 27.0523 28.0122 27.0485 28.0466 27.0446C28.0619 27.0128 28.0796 26.9696 28.0988 26.9129C28.1532 26.7523 28.1949 26.5602 28.2426 26.3355L28.2479 26.3104C28.2828 26.1455 28.3271 25.9365 28.3857 25.7669C28.416 25.6792 28.4678 25.5471 28.5585 25.422C28.6465 25.3004 28.8546 25.0749 29.2156 25.0406C29.9371 24.9722 30.7008 24.8231 31.3466 24.6167C32.0247 24.4 32.4525 24.1576 32.6261 23.9709L32.6514 23.9437C32.7477 23.8405 32.7716 23.81 32.7867 23.7827C32.7916 23.7738 32.7953 23.7652 32.7983 23.7531C32.7997 23.7477 32.8014 23.74 32.8028 23.7296L32.7954 23.7245C32.7809 23.7147 32.7643 23.7051 32.7466 23.6961C32.7355 23.6905 32.7249 23.6857 32.7152 23.6817C32.33 23.6652 31.9284 23.5599 31.5558 23.4254C31.1396 23.2752 30.7079 23.0696 30.2944 22.8402C29.4734 22.3849 28.6616 21.8012 28.1219 21.282C27.588 20.7684 26.9456 19.9615 26.4402 19.2153C26.1855 18.8392 25.9538 18.4613 25.7824 18.1266C25.6969 17.9595 25.6206 17.792 25.5642 17.6335C25.5121 17.4874 25.4567 17.2944 25.4567 17.0939C25.4567 16.3293 25.9145 15.8329 26.41 15.524C26.8514 15.2489 27.4108 15.0656 27.8624 14.9177L27.9097 14.9021C28.4535 14.7238 28.8683 14.5822 29.1595 14.3939C29.406 14.2345 29.473 14.1045 29.473 13.9227C29.473 13.8334 29.4159 13.6774 29.2188 13.5179C29.0244 13.3606 28.7792 13.2743 28.5784 13.2743C28.3577 13.2743 28.2075 13.338 27.9219 13.4749L27.8922 13.4892C27.6362 13.6124 27.2361 13.8048 26.71 13.8048C26.3456 13.8048 25.9378 13.7017 25.638 13.3841C25.3418 13.0702 25.2723 12.6749 25.2966 12.3357C25.3699 11.3146 25.4567 9.89042 25.4567 8.86526C25.4567 7.75675 25.0354 5.89613 23.793 4.33046C22.5794 2.801 20.5505 1.50898 17.2059 1.50898C13.8609 1.50898 11.8219 2.80138 10.5988 4.3324Z" fill="var(--fill-0, black)"/>
</svg>
